<svg xmlns="http://www.w3.org/2000/svg" width="1600" height="1000" viewBox="0 0 1600 1000">
  <rect width="1600" height="1000" fill="#ffffff"/>
  <style>
  .sans{font-family:Inter,"Noto Sans SC","Source Han Sans SC","PingFang SC",sans-serif}
  .mono{font-family:"Space Mono","SFMono-Regular",monospace}
  .ink{fill:#111315}.muted{fill:#5b6066}.light{fill:#9aa0a6}.red{fill:#e4002b}.blue{fill:#1f77b4}
  .body{font-size:16px}.small{font-size:12px}.micro{font-size:10px;letter-spacing:1.6px}
  .hair{stroke:#d9dcdf;stroke-width:1}.rule{stroke:#111315;stroke-width:1.5}.redrule{stroke:#e4002b;stroke-width:2}
</style>
  <rect x="72" y="52" width="1456" height="4" fill="#e4002b"/>
  <text x="72" y="92" class="mono red" font-size="12" letter-spacing="2">SOURCE TYPING &amp; DECISION / FRAME 04</text>
  <text x="72" y="164" class="sans ink" font-size="54" font-weight="800">来源不同，判断标准不能相同。</text>
  <text x="76" y="205" class="sans muted body">滚动先把多来源供给分成四类，再让一条内容通过六项判断并进入明确状态。</text>
  <text x="1290" y="92" class="mono muted small">SCROLL-DRIVEN</text>
  <text x="1290" y="116" class="mono ink small">FRAME 064 / 100</text>
  <line x1="1290" y1="132" x2="1528" y2="132" class="hair"/>
  <line x1="1290" y1="132" x2="1442.32" y2="132" class="redrule"/>
  <line x1="72" y1="264" x2="1528" y2="264" class="rule"/>
  
  <g>
    <text x="72" y="304" class="mono muted micro">01 / HETEROGENEOUS SUPPLY</text>
    <text x="72" y="340" class="sans ink" font-size="24" font-weight="750">51种来源</text>
    <rect x="72" y="362" width="144" height="38" fill="#ffffff" stroke="#e4002b" stroke-width="2"/><text x="84" y="386" class="sans red" font-size="13" font-weight="650">商务局 15</text><rect x="232" y="362" width="144" height="38" fill="#f4f5f6" /><text x="244" y="386" class="sans ink" font-size="13" font-weight="650">文旅局 12</text><rect x="72" y="417" width="144" height="38" fill="#f4f5f6" /><text x="84" y="441" class="sans ink" font-size="13" font-weight="650">科信局 11</text><rect x="232" y="417" width="144" height="38" fill="#f4f5f6" /><text x="244" y="441" class="sans ink" font-size="13" font-weight="650">文旅集团 7</text><rect x="72" y="472" width="144" height="38" fill="#f4f5f6" /><text x="84" y="496" class="sans ink" font-size="13" font-weight="650">发改委 7</text><rect x="232" y="472" width="144" height="38" fill="#f4f5f6" /><text x="244" y="496" class="sans ink" font-size="13" font-weight="650">东坝乡 6</text><rect x="72" y="527" width="144" height="38" fill="#f4f5f6" /><text x="84" y="551" class="sans ink" font-size="13" font-weight="650">CBD管委会 6</text><rect x="232" y="527" width="144" height="38" fill="#f4f5f6" /><text x="244" y="551" class="sans ink" font-size="13" font-weight="650">教委 5</text><rect x="72" y="582" width="144" height="38" fill="#f4f5f6" /><text x="84" y="606" class="sans ink" font-size="13" font-weight="650">组织部 5</text><rect x="232" y="582" width="144" height="38" fill="#f4f5f6" /><text x="244" y="606" class="sans ink" font-size="13" font-weight="650">水务局 4</text><rect x="72" y="637" width="144" height="38" fill="#f4f5f6" /><text x="84" y="661" class="sans ink" font-size="13" font-weight="650">联合来源 11</text><rect x="232" y="637" width="144" height="38" fill="#f4f5f6" /><text x="244" y="661" class="sans ink" font-size="13" font-weight="650">温榆河 1</text>
    <text x="72" y="728" class="mono muted small">147 MARKED RECORDS</text>
  </g>
  <path d="M388 480 C420 480 430 480 456 480" fill="none" stroke="#e4002b" stroke-width="2" stroke-dasharray="5 6"/><polygon points="456,480 444,473 444,487" fill="#e4002b"/>
  <line x1="420" y1="264" x2="420" y2="770" class="hair"/>
  <g>
    <text x="456" y="304" class="mono muted micro">02 / SOURCE TYPING</text>
    <text x="456" y="340" class="sans ink" font-size="24" font-weight="750">四条供给轨道</text>
    <rect x="456" y="382" width="332" height="62" fill="#111315"/><text x="474" y="408" class="sans" fill="#ffffff" font-size="15" font-weight="700">区级机关 / 专业部门</text><text x="770" y="408" class="mono" fill="#e4002b" font-size="11" text-anchor="end">104条</text><text x="474" y="430" class="mono" fill="#cfd2d4" font-size="9">专业校验优先</text><rect x="456" y="466" width="332" height="62" fill="#f4f5f6"/><text x="474" y="492" class="sans" fill="#111315" font-size="15" font-weight="700">街乡 / 基层</text><text x="770" y="492" class="mono" fill="#5b6066" font-size="11" text-anchor="end">23条</text><text x="474" y="514" class="mono" fill="#5b6066" font-size="9">人物与生活场景</text><rect x="456" y="550" width="332" height="62" fill="#f4f5f6"/><text x="474" y="576" class="sans" fill="#111315" font-size="15" font-weight="700">联合来源</text><text x="770" y="576" class="mono" fill="#5b6066" font-size="11" text-anchor="end">11条</text><text x="474" y="598" class="mono" fill="#5b6066" font-size="9">先统一责任边界</text><rect x="456" y="634" width="332" height="62" fill="#f4f5f6"/><text x="474" y="660" class="sans" fill="#111315" font-size="15" font-weight="700">企业 / 项目机构</text><text x="770" y="660" class="mono" fill="#5b6066" font-size="11" text-anchor="end">9条</text><text x="474" y="682" class="mono" fill="#5b6066" font-size="9">弱化宣传表达</text>
    <text x="456" y="728" class="mono red small">SELECTED / 区级机关</text>
  </g>
  <path d="M788 414 C820 414 830 414 854 414" fill="none" stroke="#e4002b" stroke-width="2" stroke-dasharray="5 6"/><polygon points="854,414 842,407 842,421" fill="#e4002b"/>
  <line x1="824" y1="264" x2="824" y2="770" class="hair"/>
  <g>
    <text x="860" y="304" class="mono red micro">03 / JUDGMENT &amp; DECISION</text>
    <text x="860" y="340" class="sans ink" font-size="24" font-weight="750">选中一条，逐项判断</text>
    <rect x="860" y="370" width="668" height="96" fill="#ffffff" stroke="#e4002b" stroke-width="2"/>
    <text x="880" y="400" class="mono red small">朝阳区商务局 / POLICY</text>
    <text x="880" y="435" class="sans ink" font-size="19" font-weight="750">最高奖励500万！朝阳支持“一人公司”</text>
    <text x="860" y="500" class="sans ink" font-size="14" font-weight="700">权威性</text><rect x="860" y="514" width="190" height="5" fill="#e6e7e8"/><rect x="860" y="514" width="174.8" height="5" fill="#e4002b"/><text x="1050" y="500" class="mono muted" font-size="9" text-anchor="end">92</text><text x="1084" y="500" class="sans ink" font-size="14" font-weight="700">用户价值</text><rect x="1084" y="514" width="190" height="5" fill="#e6e7e8"/><rect x="1084" y="514" width="148.20000000000002" height="5" fill="#111315"/><text x="1274" y="500" class="mono muted" font-size="9" text-anchor="end">78</text><text x="1308" y="500" class="sans ink" font-size="14" font-weight="700">时效</text><rect x="1308" y="514" width="190" height="5" fill="#e6e7e8"/><rect x="1308" y="514" width="121.60000000000001" height="5" fill="#111315"/><text x="1498" y="500" class="mono muted" font-size="9" text-anchor="end">64</text><text x="860" y="576" class="sans ink" font-size="14" font-weight="700">完整度</text><rect x="860" y="590" width="190" height="5" fill="#e6e7e8"/><rect x="860" y="590" width="155.79999999999998" height="5" fill="#111315"/><text x="1050" y="576" class="mono muted" font-size="9" text-anchor="end">82</text><text x="1084" y="576" class="sans ink" font-size="14" font-weight="700">风险</text><rect x="1084" y="590" width="190" height="5" fill="#e6e7e8"/><rect x="1084" y="590" width="57" height="5" fill="#111315"/><text x="1274" y="576" class="mono muted" font-size="9" text-anchor="end">30</text><text x="1308" y="576" class="sans ink" font-size="14" font-weight="700">转化成本</text><rect x="1308" y="590" width="190" height="5" fill="#e6e7e8"/><rect x="1308" y="590" width="91.2" height="5" fill="#111315"/><text x="1498" y="576" class="mono muted" font-size="9" text-anchor="end">48</text>
    <line x1="860" y1="650" x2="1528" y2="650" class="hair"/>
    <text x="860" y="681" class="mono muted micro">OUTPUT STATE</text>
    <rect x="860" y="699" width="116" height="38" fill="#f4f5f6"/><text x="918" y="724" class="sans" fill="#5b6066" font-size="14" font-weight="700" text-anchor="middle">发布</text><rect x="992" y="699" width="116" height="38" fill="#e4002b"/><text x="1050" y="724" class="sans" fill="#ffffff" font-size="14" font-weight="700" text-anchor="middle">改写</text><rect x="1124" y="699" width="116" height="38" fill="#f4f5f6"/><text x="1182" y="724" class="sans" fill="#5b6066" font-size="14" font-weight="700" text-anchor="middle">核实</text><rect x="1256" y="699" width="116" height="38" fill="#f4f5f6"/><text x="1314" y="724" class="sans" fill="#5b6066" font-size="14" font-weight="700" text-anchor="middle">延后</text><rect x="1388" y="699" width="116" height="38" fill="#f4f5f6"/><text x="1446" y="724" class="sans" fill="#5b6066" font-size="14" font-weight="700" text-anchor="middle">替换</text>
  </g>
  
    <g transform="translate(0,0)">
      <text x="72" y="812" class="mono muted micro">SCROLL PROTOCOL / 075%</text>
      <line x1="72" y1="842" x2="1528" y2="842" class="hair"/>
      <line x1="72" y1="842" x2="1164" y2="842" class="redrule"/>
      <circle cx="72" cy="842" r="5" fill="#111315" stroke="#111315" stroke-width="2"/><circle cx="436" cy="842" r="5" fill="#111315" stroke="#111315" stroke-width="2"/><circle cx="800" cy="842" r="5" fill="#111315" stroke="#111315" stroke-width="2"/><circle cx="1164" cy="842" r="7" fill="#111315" stroke="#111315" stroke-width="2"/><circle cx="1528" cy="842" r="5" fill="#ffffff" stroke="#111315" stroke-width="2"/>
      <text x="72" y="880" class="mono muted small" >00</text><text x="72" y="908" class="sans ink" font-size="15" font-weight="700" >来源进入</text><text x="436" y="880" class="mono muted small" >01</text><text x="436" y="908" class="sans ink" font-size="15" font-weight="700" >归入四类</text><text x="800" y="880" class="mono muted small" >02</text><text x="800" y="908" class="sans ink" font-size="15" font-weight="700" >选中一条</text><text x="1164" y="880" class="mono red small" >03</text><text x="1164" y="908" class="sans ink" font-size="15" font-weight="700" >完成六项判断</text><text x="1528" y="880" class="mono muted small" text-anchor="end">04</text><text x="1528" y="908" class="sans ink" font-size="15" font-weight="700" text-anchor="end">输出处理状态</text>
      <line x1="72" y1="950" x2="1528" y2="950" class="rule"/>
      <text x="72" y="978" class="mono muted small">MOTION NOTE</text>
      <text x="210" y="978" class="sans muted" font-size="13">只移动来源标签和选中卡片；数据条与策略文字在落位后保持静止，便于阅读。</text>
      <text x="1528" y="978" class="mono red small" text-anchor="end">CONTINUE ↓</text>
    </g>
  </svg>